<!-- <a href="https://www.freepik.com/free-photos-vectors/business">Business vector created by freepik - www.freepik.com</a> -->

<svg version="1.1" class="home" id="Capa_1" xmlns="http://www.w3.org/2000/svg" xmlns:xlink="http://www.w3.org/1999/xlink" x="0px" y="0px"
	 viewBox="0 0 227.167 227.167" style="enable-background:new 0 0 227.167 227.167;" xml:space="preserve">
<path d="M223.446,111.079c-2.93,2.928-7.678,2.928-10.607,0L118.99,17.23c-2.98-2.981-7.833-2.983-10.813,0l-93.849,93.849
	c-1.465,1.464-3.385,2.196-5.304,2.196s-3.839-0.732-5.304-2.196c-2.929-2.93-2.929-7.678,0-10.607L97.57,6.623
	c8.83-8.83,23.197-8.83,32.027,0l93.849,93.849C226.374,103.401,226.374,108.149,223.446,111.079z M113.464,35.671
	c-2.386,0-5.126,0.908-6.942,2.725L22.25,122.313v88.035c0,9.288,8.363,16.818,17.651,16.818H75.25v-87.083
	c0-6.029,5.721-10.917,11.75-10.917h53.167c6.029,0,10.083,4.888,10.083,10.917v87.083h37.016c9.288,0,15.984-7.53,15.984-16.818
	v-88.048l-83.489-83.905C117.945,36.58,115.851,35.671,113.464,35.671z"/></svg>
