<!-- <a href="https://www.freepik.com/free-photos-vectors/business">Business vector created by freepik - www.freepik.com</a> -->

<svg version="1.1" class="mail" id="Capa_1" xmlns="http://www.w3.org/2000/svg" xmlns:xlink="http://www.w3.org/1999/xlink" x="0px" y="0px"
	 viewBox="0 0 240.167 240.167" style="enable-background:new 0 0 240.167 240.167;" xml:space="preserve">
<path d="M208.125,112.167c7.981,0,14.875-2.011,21.875-5.547v83.547c0,0.453,0.136,0.9,0.1,1.345l-70.15-65.444l22.485-21.673
	C189.822,109.298,198.623,112.167,208.125,112.167z M171.524,94.197c-6.283-7.999-10.045-18.07-10.045-28.988
	c0-8.116,2.098-15.542,5.746-22.542H16.5c-3.99,0-7.622,1.493-10.432,3.933l109.183,101.739L171.524,94.197z M0,61.76v128.407
	c0,1.449,0.372,2.852,0.724,4.2l69.659-67.1L0,61.76z M120.533,164.071c-1.451,1.396-3.325,2.096-5.2,2.096
	c-1.836,0-3.672-0.67-5.113-2.013l-28.596-26.647l-70.774,68.093c1.759,0.677,3.657,1.066,5.651,1.066h197.667
	c2.922,0,5.648-0.808,8.005-2.194l-72.965-67.99L120.533,164.071z M240.167,65.334c0,17.553-14.28,31.833-31.834,31.833
	c-17.553,0-31.833-14.28-31.833-31.833c0-17.554,14.28-31.834,31.833-31.834C225.887,33.5,240.167,47.78,240.167,65.334z
	 M227.477,48.425c-3.361-2.419-8.048-1.654-10.469,1.707l-13.77,19.136l-4.944-4.515c-3.059-2.792-7.803-2.577-10.596,0.482
	c-2.793,3.059-2.577,7.803,0.482,10.596l11.167,10.195c1.389,1.268,3.194,1.961,5.057,1.961c0.257,0,0.517-0.014,0.775-0.04
	c2.129-0.222,4.062-1.342,5.313-3.079l18.691-25.975C231.603,55.531,230.839,50.845,227.477,48.425z"/>
</svg>
